<?xml version="1.0" encoding="UTF-8"?>
<svg id="uuid-868ac1c9-5b61-4026-8b5b-c34d27abb527" data-name="Ebene 1" xmlns="http://www.w3.org/2000/svg" viewBox="0 0 395.47738 63.24497">
  <defs>
    <style>
      .uuid-0cc84aa9-e0a1-4531-a19a-b9cdc05d2574 {
        fill-rule: evenodd;
      }

      .uuid-0cc84aa9-e0a1-4531-a19a-b9cdc05d2574, .uuid-0f0e6ec3-99ad-4260-9f17-b38e7e16e8a4 {
        fill: #fff;
      }
    </style>
  </defs>
  <path class="uuid-0cc84aa9-e0a1-4531-a19a-b9cdc05d2574" d="M19.69637,39.88831c-3.34619,0-7.65778-.64423-11.71155-1.67383l-1.0296,8.55847c3.79633.70795,8.68695,1.28748,12.9986,1.28748,10.36029,0,18.27545-3.92523,18.27545-13.57806,0-12.87006-20.52783-11.96893-20.52783-18.33972,0-3.08881,3.02454-4.31158,6.75708-4.31158,2.83099,0,6.75671.64325,11.06781,1.99451l.77271-8.75165c-4.37628-1.22186-8.62323-1.54437-11.26147-1.54437C15.1274,3.52954,7.53427,7.71265,7.53427,16.4643c0,15.12244,20.52789,12.16211,20.52789,19.24084,0,2.57404-2.50977,4.18317-8.36578,4.18317Z"/>
  <path class="uuid-0cc84aa9-e0a1-4531-a19a-b9cdc05d2574" d="M55.06692,6.05005h-1.30872l-7.96143,1.83374v7.79321l-4.50195,1.07489v6.22845h4.50195v15.28882c0,8.72394,5.15265,9.84222,9.64124,9.84222,2.95807,0,6.41565-.52588,9.29144-1.41132-.18628-2.42151-.37714-4.91785-.50787-7.38098-1.76715.50836-3.73578,1.00098-5.28943,1.00098-2.49274,0-3.86523-1.3725-3.86523-3.86517v-13.47455h9.94586v-7.38843h-9.94586V6.05005Z"/>
  <path class="uuid-0cc84aa9-e0a1-4531-a19a-b9cdc05d2574" d="M91.30074,15.83502v21.35645l-.11279.06934c-2.70203,1.66364-5.51123,2.65625-7.51501,2.65625-2.74316,0-4.13416-1.63959-4.13416-4.87347V14.92005h-1.37616l-7.89398.91498v20.75385c0,10.02527,6.54596,11.52252,10.44763,11.52252,4.0824,0,7.38147-1.78009,10.9657-3.93079l.35815-.21442.97278,3.33929h7.55798V14.92005h-1.44324l-7.8269.91498Z"/>
  <path class="uuid-0cc84aa9-e0a1-4531-a19a-b9cdc05d2574" d="M119.2618,6.05005h-1.30872l-7.96143,1.83374v7.79321l-4.50195,1.07489v6.22845h4.50195v15.28882c0,8.72394,5.15265,9.84222,9.64124,9.84222,2.95807,0,6.41565-.52588,9.29144-1.41132-.18628-2.42151-.37714-4.91785-.50787-7.38098-1.76715.50836-3.73584,1.00098-5.28949,1.00098-2.49268,0-3.86517-1.3725-3.86517-3.86517v-13.47455h9.94586v-7.38843h-9.94586V6.05005Z"/>
  <polygon class="uuid-0cc84aa9-e0a1-4531-a19a-b9cdc05d2574" points="161.0682 15.59192 134.10531 15.59192 134.10531 23.45081 150.23104 23.45081 133.37283 40.30896 133.82156 47.30548 161.7106 47.30548 161.7106 39.5141 144.64858 39.5141 161.7106 22.65778 161.0682 15.59192"/>
  <path class="uuid-0cc84aa9-e0a1-4531-a19a-b9cdc05d2574" d="M296.62435.98151v14.52728l-.28192-.05548c-2.35632-.45844-3.77917-.73474-5.73303-.73474-10.13293,0-16.42798,6.70721-16.42798,17.5033,0,7.68134,3.43311,15.88953,13.06787,15.88953,2.89612,0,7.23358-1.48615,9.66895-3.31244l.37848-.28375,1.03979,2.79028h7.55798V0h-.97278l-8.29736.98151ZM296.62435,37.37171l-.08594.07117c-2.09021,1.73114-4.19836,2.60822-6.26501,2.60822-4.34857,0-6.55334-2.72467-6.55334-8.09821,0-6.3551,2.83789-9.57697,8.43463-9.57697,1.73065,0,3.14154.30957,4.29315.61182l.17651.04712v14.33685Z"/>
  <polygon class="uuid-0cc84aa9-e0a1-4531-a19a-b9cdc05d2574" points="313.62948 15.83502 313.62948 47.30548 322.89962 47.30548 322.89962 14.92005 321.38943 14.92005 313.62948 15.83502"/>
  <polygon class="uuid-0cc84aa9-e0a1-4531-a19a-b9cdc05d2574" points="313.12515 10.78681 323.40396 9.53296 323.40396 1.07581 313.12515 1.07581 313.12515 10.78681"/>
  <path class="uuid-0cc84aa9-e0a1-4531-a19a-b9cdc05d2574" d="M385.02975,14.71857c-4.08423,0-7.38287,1.78009-10.96521,3.93079l-.30035.18024-.62848-3.90955h-1.00745l-6.95306.91223v31.47321h9.27014v-21.88513l.13403-.0647c3.42798-1.6424,5.80145-2.37531,7.69519-2.37531,2.60913,0,3.93268,1.63959,3.93268,4.87354v19.4516h9.27014v-20.99695c0-10.08441-6.54547-11.58997-10.44763-11.58997Z"/>
  <path class="uuid-0cc84aa9-e0a1-4531-a19a-b9cdc05d2574" d="M345.04519,14.71045c-10.75128,0-16.06012,7.83435-16.06012,16.77179,0,11.1217,5.91327,16.63391,16.73199,16.63391,3.76355,0,7.99658-.67194,12.3645-2.01575v-7.83087c-3.39783,1.24457-7.05164,1.98767-9.81055,1.98767-4.80054,0-9.12274-.5213-9.27661-6.81537l-.0116-.48431h20.04327c.16125-1.13263.2644-2.36072.2644-4.3645,0-6.85419-3.5611-13.88257-14.2453-13.88257ZM349.81912,27.85663h-10.81781l.06329-.5296c.46631-3.8772,2.5343-5.92712,5.98077-5.92712,2.94464,0,4.77374,2.11279,4.77374,5.51306v.94366Z"/>
  <path class="uuid-0cc84aa9-e0a1-4531-a19a-b9cdc05d2574" d="M255.39688,14.71045c-10.75128,0-16.06012,7.83435-16.06012,16.77179,0,11.1217,5.91333,16.63391,16.73206,16.63391,3.76349,0,7.99652-.67194,12.3645-2.01575v-7.83087c-3.39789,1.24457-7.0517,1.98767-9.81061,1.98767-4.80054,0-9.12274-.5213-9.27661-6.81537l-.01154-.48431h20.04327c.16119-1.13263.2644-2.36072.2644-4.3645,0-6.85419-3.56116-13.88257-14.24536-13.88257ZM260.1708,27.85663h-10.81781l.06335-.5296c.46625-3.8772,2.53424-5.92712,5.98077-5.92712,2.94464,0,4.77368,2.11279,4.77368,5.51306v.94366Z"/>
  <polygon class="uuid-0cc84aa9-e0a1-4531-a19a-b9cdc05d2574" points="208.43496 35.64881 196.98818 4.2666 183.4194 4.2666 183.4194 47.35248 193.19418 47.35248 193.19418 20.1341 203.54757 47.54517 213.25857 47.54517 223.48251 20.1341 223.48251 47.35248 233.32199 47.35248 233.32199 4.2666 219.94637 4.2666 208.43496 35.64881"/>
  <rect class="uuid-0f0e6ec3-99ad-4260-9f17-b38e7e16e8a4" x=".00002" y="55.31043" width="43.06372" height="7.93451"/>
</svg>