<?xml version="1.0" encoding="UTF-8"?>
<svg id="uuid-b0e2c6b3-4e2f-453c-87cf-65ebcd7e0e9a" data-name="Capa 1" xmlns="http://www.w3.org/2000/svg" viewBox="0 0 1148.01081 2224.1625">
  <defs>
    <style>
      .uuid-6c6021d0-0a17-4134-8c16-0ffdf8515351 {
        fill: #da802e;
      }

      .uuid-fba7513b-4386-41d8-b8c7-5638e910ac14 {
        fill: #d34734;
      }

      .uuid-5847e65c-2b02-49fe-8a7f-1439d1318c74 {
        fill: #605e6f;
      }

      .uuid-8bec783f-6dd6-4456-8d79-5de669a57575 {
        fill: #aa3324;
      }

      .uuid-76361fff-8881-47ba-b112-5493c019d49e {
        fill: #356eb5;
      }

      .uuid-33727d32-d8ba-4114-a226-9c79db5ebd13 {
        fill: #fff;
      }

      .uuid-71adbecc-8677-4292-9f05-fc293500c39b {
        fill: #c5ddf1;
      }

      .uuid-0253e58c-dc34-49d9-a95b-f0a2d632534d {
        fill: #e2f3fe;
      }

      .uuid-cdd8b0f3-ad2f-4e04-b73b-a9071abc0d9c {
        fill: #eae325;
      }

      .uuid-8f42c8e7-4437-4fad-bab7-c4d0cbf7010e {
        fill: #f7fcff;
      }

      .uuid-e24bbb39-4fb5-43e6-96e2-7bf2a5a56d30 {
        fill: #24488e;
      }
    </style>
  </defs>
  <path class="uuid-0253e58c-dc34-49d9-a95b-f0a2d632534d" d="M1141.43611,1375.83352l-212.835-261.09162c5.0196-40.4912,8.4271-81.6611,9.8266-123.2745,8.6011-255.6114-60.5426-494.6742-141.7652-674.006l-.0078-.0162c-13.392-29.5702-27.1081-57.5194-40.8649-83.6468l-.0082-.0168c-1.9172-3.6412-3.8349-7.22-5.7521-10.7904-.6018-1.1195-1.2042-2.2524-1.806-3.3635-1.7839-3.3038-3.5677-6.5557-5.3515-9.7942-.7302-1.3265-1.4575-2.6557-2.1871-3.9709-1.743-3.1404-3.4833-6.2456-5.2236-9.3257-.7492-1.3237-1.4956-2.6417-2.2447-3.9548-1.7403-3.0611-3.4806-6.0977-5.2181-9.0942-.7028-1.2143-1.4028-2.4102-2.1057-3.6111-1.8055-3.0913-3.6061-6.1664-5.4033-9.1896-.5065-.8468-1.0079-1.6751-1.5116-2.519-8.6095-14.3999-17.123-27.9961-25.4736-40.7421-.4904-.7519-.9863-1.5172-1.4766-2.2608-1.7046-2.5931-3.3985-5.1233-5.0904-7.6422-.705-1.0487-1.4106-2.1057-2.1135-3.1432-1.6014-2.3695-3.1944-4.6927-4.7824-6.9941-.7709-1.1167-1.539-2.2278-2.3071-3.3284-1.5438-2.2166-3.0773-4.4065-4.6056-6.5585-.7843-1.1055-1.563-2.1921-2.3422-3.2792-1.5116-2.1107-3.0204-4.2052-4.5131-6.2478-.7513-1.0291-1.4949-2.0265-2.2412-3.0394-1.5172-2.0538-3.0316-4.107-4.5292-6.0928-.5746-.7653-1.1385-1.4926-1.7136-2.2467-5.0926-6.7058-10.0581-12.9971-14.8868-18.8774-.7955-.9694-1.5959-1.9611-2.3828-2.906-1.2016-1.4436-2.3808-2.8269-3.5655-4.2158-.9014-1.0626-1.8056-2.1302-2.6992-3.1599-1.1167-1.2907-2.2172-2.5352-3.3144-3.7746-.9287-1.0514-1.8546-2.0917-2.7727-3.1074-1.0459-1.1602-2.0834-2.2937-3.11313-3.4076-.9449-1.0213-1.8792-2.0153-2.8107-2.9986-.975-1.0292-1.9443-2.051-2.9005-3.0367-.9672-.9939-1.9149-1.9444-2.8626-2.8954-.8908-.8903-1.7866-1.7972-2.6612-2.6501-1.0375-1.013-2.0482-1.9578-3.0611-2.9111-.7491-.7056-1.5143-1.4464-2.2496-2.1218-1.6862-1.5446-3.3389-3.0121-4.9515-4.3904-.5149-.4384-.9996-.8172-1.506-1.2394-1.1385-.9477-2.2719-1.8876-3.36908-2.7477-.62642-.4903-1.226-.9237-1.83852-1.3867-.6347-.4791-1.2857-.9912-1.90648-1.438l.00558-.0055-.082-.0519-.8005-.5556c-.624-.4384-1.226-.8389-1.8334-1.2444-.8579-.5745-1.7046-1.1278-2.5301-1.6371-.588-.362-1.1658-.7023-1.7404-1.0319-.80318-.463-1.588-.8908-2.3583-1.2857-.5394-.2778-1.076-.55-1.5992-.7954l-.5773-.2884-.16838-.082c-.51772-.2315-.99962-.3893-1.50112-.5857l-1.4-.5388c-.5121-.1746-.9996-.3051-1.4921-.4412l-.956-.2482-.8881-.2204c-1.0542-.1963-2.0671-.3162-3.012-.3162-.9455,0-1.9556.1199-3.0126.3162l-1.0894.2778c-.7324.1768-1.4681.3676-2.24668.632l-1.40012.5388c-.7352.2889-1.4765.5968-2.2468.9561-.5232.2454-1.0598.5176-1.5992.7954-.7703.3949-1.5551.8227-2.3583,1.2857-.5723.3296-1.1497.6699-1.7404,1.0319-.8227.5093-1.6694,1.0626-2.525,1.6371-.6097.4055-1.2144.806-1.8407,1.2472-.902.6376-1.83348,1.3348-2.7673,2.0376-.6185.4658-1.22318.907-1.85518,1.3995-1.09212.8579-2.22222,1.795-3.35512,2.7377-.5093.4244-.9996.806-1.5172,1.2472-1.6098,1.3783-3.2653,2.8458-4.9515,4.3904-.7407.681-1.5116,1.4273-2.2685,2.138-1.0052.9476-2.0046,1.8847-3.0344,2.8871-.8796.8607-1.7838,1.7732-2.6824,2.6746-.9427.9421-1.8848,1.8876-2.8464,2.8787-.9561.9834-1.9283,2.0075-2.9033,3.0367-.9287.9833-1.863,1.9773-2.8107,2.9986-1.0297,1.1139-2.0672,2.2496-3.1158,3.4098-.9126,1.0107-1.8329,2.0432-2.7561,3.0891-1.1061,1.25-2.2144,2.5055-3.34158,3.8046-.87752,1.013-1.76552,2.0644-2.653,3.1075-1.19872,1.4084-2.39122,2.8051-3.60892,4.2682-.7625.9148-1.5389,1.8764-2.307,2.8107-4.8533,5.9098-9.8455,12.234-14.96608,18.9749-.56892.7491-1.12732,1.4709-1.69682,2.2278-1.506,1.9964-3.0288,4.0585-4.5538,6.1257-.7351.9968-1.4681,1.9802-2.206,2.9931-1.5005,2.0538-3.0149,4.1561-4.5321,6.2724-.7764,1.0837-1.55228,2.1653-2.3315,3.2658-1.5334,2.1626-3.0746,4.3547-4.6246,6.5797-.757,1.0922-1.5195,2.1927-2.282,3.2988-1.5908,2.3064-3.1866,4.6324-4.7936,7.0075-.7029,1.0375-1.4084,2.0945-2.1135,3.1432-1.6918,2.5217-3.3858,5.0519-5.0932,7.645-.48188.7296-.9672,1.4815-1.4463,2.2167-8.3585,12.76-16.881,26.3701-25.5011,40.7834-.5037.8439-1.0046,1.6722-1.5088,2.519-1.8028,3.0344-3.6112,6.1173-5.4223,9.2197-.6922,1.1819-1.3811,2.3611-2.0728,3.5542-1.74858,3.0177-3.5001,6.0705-5.2538,9.1511-.7379,1.2963-1.4765,2.5982-2.2144,3.9057-1.7431,3.0885-3.4862,6.1959-5.2321,9.3447-.7296,1.3152-1.4597,2.6444-2.1899,3.9709-1.7838,3.2385-3.5676,6.4904-5.35138,9.7942-.60192,1.1111-1.20432,2.244-1.80612,3.3635-1.9172,3.5704-3.8348,7.152-5.752,10.7932l-.0083.014c-11.1419,21.162-22.257,43.5283-33.1975,66.9727l-.0273.0625c-2.5575,5.4803-5.1044,11.0147-7.6401,16.6116l-.0078.0162c-81.2226,179.3318-150.3663,418.3946-141.7652,674.006,1.40231,41.6134,4.8099,82.7833,9.8266,123.2745L6.5719,1375.83352,0,1787.42711l68.53361-32.498,33.45949-237.48819,184.0926-109.0525c26.84092,80.8796,58.5245,154.2748,91.5312,216.86839h-7.7405l49.0359,87.1926h2.20332c-22.36632,93.7267-46.07242,311.57559,152.29178,511.71309,0,0,227.29682-190.17199,153.16092-511.71309h2.5302l49.0353-87.1926h-7.7265l.7815-1.5089c1.9472-3.7015,3.8839-7.4465,5.8205-11.2216,1.3454-2.6255,2.688-5.2455,4.0284-7.9061,1.9907-3.952,3.9709-7.9642,5.9482-11.9947,1.2528-2.5547,2.5112-5.0904,3.7584-7.678,2.1704-4.49692,4.3251-9.0697,6.4765-13.65592,1.0325-2.206,2.0728-4.37138,3.1025-6.59688,3.1403-6.7872,6.2584-13.6587,9.3474-20.6338l.0842-.1852c18.6157-42.0496,36.2347-87.47612,52.1702-135.4873l184.0926,109.0525,33.4568,237.48819,68.5363,32.498-6.5747-411.59359Z"/>
  <path class="uuid-cdd8b0f3-ad2f-4e04-b73b-a9071abc0d9c" d="M726.59011,1712.44941h-115.05772l-11.5619,74.9777h-51.933l-11.56188-74.9777h-115.36c-22.36632,93.7267-46.07242,311.57559,152.29178,511.71309,0,0,227.32422-190.16639,153.18272-511.71309Z"/>
  <path class="uuid-fba7513b-4386-41d8-b8c7-5638e910ac14" d="M1141.43611,1375.83352l-212.7915-261.03702c-9.0256,72.8235-23.4305,143.3862-41.5236,210.09462-7.7538,28.58948-16.1859,56.4712-25.163,83.5191l184.0597,109.0307,33.4568,237.48819,68.5363,32.498-6.5747-411.59359Z"/>
  <path class="uuid-fba7513b-4386-41d8-b8c7-5638e910ac14" d="M260.88699,1324.89112c-18.0931-66.70842-32.498-137.27112-41.5236-210.09462L6.5719,1375.83352,0,1787.42711l68.53361-32.498,33.45949-237.48819,184.0569-109.0307c-8.9765-27.0479-17.4091-54.92962-25.163-83.5191Z"/>
  <path class="uuid-fba7513b-4386-41d8-b8c7-5638e910ac14" d="M755.78981,233.7984c-61.8388-117.4439-124.3671-198.1489-160.84942-224.4727l-.0112-.0106-.637-.4552-.251-.1768-.6342-.444-.1879-.1283-1.3944-.9449-.0085-.0056-.5828-.381-.294-.1907-.54778-.3514-.29672-.1852c-.6047-.3788-1.201-.7408-1.7894-1.0838l-.3213-.1852-.4819-.2755-.033-.019-.2861-.1606-.0653-.038-.4222-.2315-.4708-.2532-.2454-.1311-.4411-.2287-.3705-.1879-.4111-.2042-.4005-.1935-.3949-.188-.1116-.0513-.4278-.1964-.1578-.0708-.3241-.1417-.0246-.0106-.4166-.1802-.3431-.1411-.3051-.1227-.13608-.0519-.30792-.1227-.4875-.1796-.2041-.0764-.2427-.0842-.4791-.1607-.2968-.0954h-.0028l-.4713-.1444-.2231-.0653-.1339-.0379-.411-.1121-.1334-.0324-.188-.0463-.48738-.1143-.25892-.0547-.1985-.0435-.0385-.0084-.2287-.0407-.1908-.0351-.2722-.0441-.188-.0296-.18238-.0273h-.00562l-.0898-.0112-.43058-.0513-.00772-.0028-.1144-.0083-.188-.019-.4033-.0301-.0652-.0028-.1691-.0078-.6096-.0167-.7218.0217-.2371.0167-.5064.0408-.28338.0329-.48192.0624-.31908.0491-.45462.0815-.3458.0652-.4825.1066-.324.0764-.5093.1333-.3347.0926-.64308.1935-.193.0569-.85292.289-.3619.1361-.5255.1958-.4116.1634-.4904.2019-.444.1902-.4708.2075-.47688.2176-.46022.2181-.4986.242-.4301.2153-.5449.2778-.381.2019c-.7408.395-1.4954.8166-2.2691,1.2718l-.2532.1495-.7001.4222-.3185.1936-.705.444-.3352.2125-.7246.4708-.2834.1852-.81708.5449-.16352.1144c-36.1336,24.6047-99.94148,106.1843-163.0309,226.0033,2.0102-.3487,4.0255-.6917,6.04642-1.0325.57728-.0954,1.15738-.1908,1.73748-.2884,1.4982-.2482,2.9959-.4931,4.4969-.7357.5857-.0954,1.1687-.188,1.7537-.2806,1.5445-.2476,3.0941-.4903,4.6442-.7296.5282-.082,1.05372-.1634,1.5796-.2454,1.969-.2995,3.9408-.5963,5.9154-.888l.1088-.0162c4.4015-.6453,8.8248-1.2634,13.267-1.8574l.0976-.0106c2.13532-.2862,4.2761-.5639,6.4197-.8361l.4523-.0575c2.1514-.2722,4.3084-.5394,6.4709-.7982l.02742-.0028c41.44208-4.9755,84.52928-7.6121,128.76868-7.6121,63.44862,0,124.53282,5.4144,181.78552,15.3911Z"/>
  <path class="uuid-fba7513b-4386-41d8-b8c7-5638e910ac14" d="M788.98731,300.7711c-67.6343-14.1572-140.2564-21.5708-214.98302-21.5708-55.605,0-110.0443,4.1075-162.1324,12.0438-8.9062,1.3537-17.7416,2.8218-26.5006,4.4015l-.1718.0296c-2.1191.3815-4.2353.7708-6.346,1.1658l-.2504.0463c-1.9963.3759-3.9871.7574-5.9784,1.144l-.6075.1143c-1.8792.3676-3.7528.7408-5.627,1.1167l-.9041.1796c-2.1598.4362-4.314.8797-6.4654,1.3292-2.5686,5.5071-5.1289,11.0661-7.6752,16.6903,2.1486-.4742,4.3034-.9399,6.46312-1.4001l.05188-.0106c2.1486-.4579,4.3028-.907,6.4626-1.351l.082-.0161c4.3279-.8908,8.6747-1.7515,13.0433-2.5848l.1361-.0246c4.36312-.8333,8.7456-1.6371,13.1466-2.413l.1389-.0217c4.4177-.7793,8.8543-1.5284,13.3105-2.2502l.0486-.0078c54.336-8.7891,111.3946-13.3457,169.7752-13.3457,77.66012,0,152.98072,8.059,222.65822,23.4256-2.5463-5.6242-5.1066-11.1832-7.6752-16.6903Z"/>
  <circle class="uuid-33727d32-d8ba-4114-a226-9c79db5ebd13" cx="574.00484" cy="672.0833" r="208.0603" transform="translate(-307.11253 602.73136) rotate(-45)"/>
  <path class="uuid-76361fff-8881-47ba-b112-5493c019d49e" d="M624.04698,836.4926l.4468-.1389c.5773-.1774,1.15463-.357,1.72983-.5394l.242-.0764c1.3727-.4412,2.7398-.8986,4.0992-1.3727l.0898-.0296c.6593-.232,1.313-.4635,1.9662-.7l.0955-.0357c65.9787-23.9895,113.1025-87.2474,113.1025-161.5166,0-94.8896-76.9221-171.8151-171.81452-171.8151-75.0239,0-138.8106,48.0849-162.2361,115.1179l-.0218.0631c-.4741,1.3615-.9343,2.7287-1.3755,4.107l-.0764.2398c-.1796.5634-.3565,1.1273-.531,1.694l-.1578.5199-.4497,1.501-.1495.5065c-.1907.6593-.3787,1.318-.56388,1.9801l-.06532.2343c-.3542,1.2852-.6944,2.5764-1.0213,3.8728l-.1087.4412-.2918,1.1903-.10588.4412c-.15562.6588-.30792,1.3208-.458,1.9824l-.16342.7301-.212.9751-.1907.8963-.2644,1.2907-.2287,1.1519-.169.8908-.1797.9778-.1522.8389c-.10088.5611-.1964,1.1223-.2918,1.6834l-.10308.6342-.19922,1.264-.1032.6615c-.0903.5941-.1773,1.1903-.26158,1.7844l-.063.468-.20142,1.4982-.068.531c-.0792.6236-.1551,1.25-.2259,1.8764l-.014.1339c-.0708.618-.1389,1.2361-.2013,1.8574l-.0463.4491c-.0575.5912-.1144,1.1825-.169,1.7732l-.019.2069c-.0569.6593-.1116,1.3209-.1634,1.983l-.0274.3759c-.0435.5773-.0842,1.1574-.1199,1.7347l-.0217.3213c-.0435.6699-.0815,1.3404-.1144,2.0103l-.01328.2694c-.03022.5913-.05472,1.182-.07932,1.776l-.0162.3894c-.02448.6754-.0463,1.3509-.0624,2.0292l-.0028.1199c-.0162.6264-.02728,1.2556-.0357,1.8842l-.0078.444c-.0056.6705-.0112,1.3404-.0112,2.0131,0,14.6771,1.8413,28.9242,5.3057,42.5259l.2449.9561c.4384,1.675.8992,3.3417,1.3867,4.9978l.3592,1.2065c.8824,2.925,1.8412,5.82,2.8737,8.6798.3241.8936.651,1.7894.9884,2.6774,1.8686,4.9135,3.9575,9.715,6.2506,14.3999.3051.6208.613,1.2388.92322,1.8546.30508.6047.613,1.2065.92368,1.8084.6615,1.2718,1.3398,2.5385,2.0342,3.7941.29412.5338.5913,1.0676.8936,1.5986.3893.6917.787,1.3811,1.18752,2.0672l.86288,1.4597c.4307.7218.86912,1.438,1.3075,2.152.989,1.5986,1.9991,3.1755,3.0344,4.739.5171.7758,1.0375,1.5467,1.5657,2.3148,4.42052,6.428,9.2632,12.5397,14.49252,18.2916,1.38608,1.5278,2.79958,3.0288,4.24028,4.5019.9533.9778,1.9205,1.9451,2.8983,2.8983,1.9718,1.9255,3.9899,3.8047,6.0515,5.6348.5148.458,1.0297.9098,1.5495,1.3594,1.0409.9013,2.0895,1.7893,3.1515,2.6634.5283.4384,1.0621.8718,1.5987,1.3047,1.0704.8606,2.1519,1.7129,3.2441,2.5491.5472.4194,1.0944.8333,1.6477,1.2478,1.0999.8221,2.2139,1.6337,3.3361,2.4347.5612.3977,1.1251.7954,1.6912,1.1875,1.1336.7843,2.277,1.558,3.4293,2.3149,1.1519.7575,2.3149,1.5038,3.4862,2.2334,1.1708.7329,2.3507,1.4491,3.5403,2.1542,1.1904.7028,2.3918,1.3922,3.59832,2.0671,1.814,1.0135,3.64688,1.9969,5.49868,2.9446,1.2339.632,2.47832,1.25,3.7289,1.8547,3.7557,1.8083,7.5877,3.4861,11.49042,5.0251,1.95008.7681,3.91958,1.5032,5.902,2.2033,1.98578.6972,3.98768,1.3615,6.00578,1.9879,1.3453.4195,2.6963.8228,4.0551,1.2071.6783.193,1.36212.381,2.0426.5661,1.2289.3325,2.4649.651,3.7043.9561.8278.2041,1.6561.4033,2.4866.5963.6945.1606,1.3889.3162,2.0834.4657,1.39222.3051,2.7889.5913,4.1946.8607,10.5322,2.0159,21.40462,3.0723,32.5253,3.0723.6532,0,1.3069-.0056,1.9606-.0106l.5528-.0084c.5723-.0083,1.1412-.0189,1.7107-.0329l.275-.005c.651-.0167,1.2991-.0385,1.9473-.063l.5064-.019c.5366-.0217,1.0732-.0463,1.6126-.0708l.4005-.019c.6426-.0329,1.2852-.0708,1.9283-.1115l.4518-.0302c.526-.0329,1.0514-.0708,1.577-.1087l.4902-.0385c.6347-.0491,1.2695-.0976,1.9015-.1551l.362-.0329c.531-.0485,1.0592-.1004,1.5908-.1523l.5662-.0574c.5505-.0569,1.1005-.1144,1.6505-.1768l.4629-.0547c.5507-.0625,1.0978-.1277,1.6477-.1986l.6482-.082,1.3292-.1768.6074-.0842c.5723-.0792,1.1413-.1635,1.713-.2505l.7246-.1121,1.1988-.1902.7077-.1171c.5394-.0876,1.076-.1802,1.6127-.2756l.9637-.1768.8228-.1523.9995-.188.8278-.1662c.564-.1115,1.1279-.2259,1.6918-.343l.7218-.1528,1.081-.2371.5366-.1199c.7764-.1741,1.5523-.3537,2.32592-.5389l.19358-.0463,1.2963-.3162.2807-.0709c1.3531-.3374,2.7012-.6944,4.04443-1.0648l.08977-.0273c.6588-.1824,1.3125-.3676,1.96623-.5584l.52317-.1522c.5149-.1529,1.0292-.3052,1.5412-.4602Z"/>
  <path class="uuid-6c6021d0-0a17-4134-8c16-0ffdf8515351" d="M548.03749,1787.42711l-11.56188-74.9777h-73.69472c-6.0247,76.0804,7.8442,189.1914,110.6265,292.87009,0,0,126.75072-110.3354,112.76462-292.87009h-74.63962l-11.5619,74.9777h-51.933Z"/>
  <path class="uuid-8bec783f-6dd6-4456-8d79-5de669a57575" d="M1098.06291,1737.22871l-33.4569-253.71599-177.485-158.6216c-7.7538,28.58948-16.1859,56.4712-25.163,83.5191l184.0597,109.0307,33.4568,237.48819,68.5363,32.498-49.9479-50.1984Z"/>
  <path class="uuid-8bec783f-6dd6-4456-8d79-5de669a57575" d="M83.4048,1483.51272l-33.4597,253.71599L0,1787.42711l68.53361-32.498,33.45949-237.48819,184.0569-109.0307c-8.9765-27.0479-17.4091-54.92962-25.163-83.5191l-177.4822,158.6216Z"/>
  <path class="uuid-8f42c8e7-4437-4fad-bab7-c4d0cbf7010e" d="M790.02531,531.944c14.6476,56.7563,28.3308,113.8294,37.9939,171.6701,19.6644,117.7133,27.0618,237.6031,20.2311,356.7923-4.3798,78.2842-14.5823,156.642-26.2831,236.5411,1.2997-8.8734,9.7262-20.1603,13.4495-28.4647,4.5644-10.1913,8.9168-20.4753,13.0483-30.8497,7.991-20.0486,15.1709-40.4208,21.5465-61.0412,41.2217-133.3521,48.4417-276.1442,27.1051-413.7673-21.7398-140.2234-72.3029-279.0748-153.7493-395.7997,13.4383,25.3187,16.8235,51.2989,24.0112,78.7009,7.5391,28.7424,15.2221,57.4457,22.6468,86.2182Z"/>
  <path class="uuid-71adbecc-8677-4292-9f05-fc293500c39b" d="M637.82331,1541.93682l-12.84763,83.32h145.45613l.7681-1.4603.4111-.7843c.6454-1.2283,1.2885-2.4593,1.9311-3.6959l.4222-.8116c.651-1.2528,1.3019-2.5084,1.9501-3.7695l.3675-.7135c.6783-1.3208,1.3566-2.6417,2.0321-3.9709l.1606-.3135c.6833-1.3453,1.3701-2.6963,2.0532-4.0495l.1718-.3408c.6538-1.2963,1.3075-2.5982,1.9612-3.9057l.4491-.9014c.6347-1.2689,1.2696-2.5435,1.9015-3.8236l.3971-.801c.6459-1.30472,1.2885-2.6121,1.9311-3.9274l.3871-.7898c.6264-1.2774,1.2528-2.5603,1.8764-3.8482l.3129-.6482c.6159-1.2667,1.2288-2.5385,1.8413-3.8158l.3542-.7357c.632-1.3181,1.2639-2.639,1.8954-3.9654l.4334-.9153c.637-1.3398,1.2717-2.6824,1.9065-4.0278l.3564-.7603c.6487-1.3805,1.2997-2.7644,1.945-4.1561l.2778-.5991c.5963-1.2773,1.1903-2.5602,1.7838-3.8459l.3297-.7106c.632-1.37,1.2611-2.7455,1.8903-4.1238l.3867-.8439c.6129-1.34542,1.2253-2.69642,1.8384-4.04742l.482-1.06478c.6017-1.3376,1.2064-2.68022,1.8082-4.0228l.3871-.8662c.6069-1.3616,1.2171-2.7287,1.8218-4.09922l.1009-.22588-171.9316-1.9389Z"/>
  <path class="uuid-71adbecc-8677-4292-9f05-fc293500c39b" d="M509.65929,1538.52652l-43.8362-1.2824c-95.4346-149.04052-189.9784-399.77342-191.8057-666.39392-1.4436-210.3589,57.2555-406.9661,130.2117-563.4687l-.0486.0078c-4.4562.7218-8.8928,1.4709-13.3105,2.2502l-.1389.0217c-4.401.7759-8.78348,1.5797-13.1466,2.413l-.1361.0246c-4.3686.8333-8.7154,1.694-13.0433,2.5848l-.082.0161c-2.1598.444-4.314.8931-6.4626,1.351l-.05188.0106c-2.15192.4579-4.30052.9237-6.44132,1.3973-81.2311,179.3318-150.3881,418.3785-141.787,674.0088,1.40231,41.6245,4.7607,82.8269,9.7831,123.3291,9.0256,72.8235,23.4305,143.3862,41.5236,210.09462,7.7539,28.58948,16.1865,56.4712,25.163,83.5191,26.8331,80.8606,58.5301,154.2636,91.5289,216.84659h145.4535l-13.3731-86.7303Z"/>
  <path class="uuid-71adbecc-8677-4292-9f05-fc293500c39b" d="M359.02069,300.7711c2.1514-.4495,4.3056-.893,6.4654-1.3292l.9041-.1796c1.8742-.3759,3.7478-.7491,5.627-1.1167l.6075-.1143c1.9913-.3866,3.9821-.7681,5.9784-1.144l.2504-.0463c2.1107-.395,4.2269-.7843,6.346-1.1658l.1718-.0296c8.759-1.5797,17.5944-3.0478,26.5006-4.4015,10.8942-22.663,22.0634-44.4325,33.36372-65.2247l-.02742.0028c-2.1625.2588-4.3195.526-6.4709.7982l-.4523.0575c-2.1436.2722-4.28438.5499-6.4197.8361l-.0976.0106c-4.4422.594-8.8655,1.2121-13.267,1.8574l-.1088.0162c-1.9746.2917-3.9464.5885-5.9154.888-.52588.082-1.0514.1634-1.5796.2454-1.5501.2393-3.0997.482-4.6442.7296-.585.0926-1.1707.1852-1.7537.2806-1.501.2426-2.9987.4875-4.4969.7357-.5801.0976-1.1602.193-1.73748.2884-2.018.3408-4.03342.6811-6.04092,1.0325-11.2974,21.4565-22.5676,44.1413-33.6582,67.945h.0084l.4468-.9723Z"/>
  <polygon class="uuid-5847e65c-2b02-49fe-8a7f-1439d1318c74" points="536.47561 1712.44941 523.03239 1625.25682 377.57889 1625.25682 369.87639 1625.25682 418.91229 1712.44941 421.11561 1712.44941 462.78089 1712.44941 536.47561 1712.44941"/>
  <polygon class="uuid-5847e65c-2b02-49fe-8a7f-1439d1318c74" points="624.97568 1625.25682 611.53238 1712.44941 686.17201 1712.44941 726.59011 1712.44941 729.09851 1712.44941 778.13381 1625.25682 770.43181 1625.25682 624.97568 1625.25682"/>
  <path class="uuid-8bec783f-6dd6-4456-8d79-5de669a57575" d="M392.21819,233.7984c2.0102-.3487,4.0255-.6917,6.04642-1.0325.57728-.0954,1.15738-.1908,1.73748-.2884,1.4982-.2482,2.9959-.4931,4.4969-.7357.5857-.0954,1.1687-.188,1.7537-.2806,1.5445-.2476,3.0941-.4903,4.6442-.7296.5282-.082,1.05372-.1634,1.5796-.2454,1.969-.2995,3.9408-.5963,5.9154-.888l.1088-.0162c4.4015-.6453,8.8248-1.2634,13.267-1.8574l.0976-.0106c2.13532-.2862,4.2761-.5639,6.4197-.8361l.4523-.0575c2.1514-.2722,4.3084-.5394,6.4709-.7982l.02742-.0028c51.95758-95.6164,106.62548-170.5862,149.70478-216.6937l-.0112-.0106-.637-.4552-.251-.1768-.6342-.444-.1879-.1283-1.3944-.9449-.0085-.0056-.5828-.381-.294-.1907-.54778-.3514-.29672-.1852c-.6047-.3788-1.201-.7408-1.7894-1.0838l-.3213-.1852-.4819-.2755-.033-.019-.2861-.1606-.0653-.038-.4222-.2315-.4708-.2532-.2454-.1311-.4411-.2287-.3705-.1879-.4111-.2042-.4005-.1935-.3949-.188-.1116-.0513-.4278-.1964-.1578-.0708-.3241-.1417-.0246-.0106-.4166-.1802-.3431-.1411-.3051-.1227-.13608-.0519-.30792-.1227-.4875-.1796-.2041-.0764-.2427-.0842-.4791-.1607-.2968-.0954h-.0028l-.4713-.1444-.2231-.0653-.1339-.0379-.411-.1121-.1334-.0324-.188-.0463-.48738-.1143-.25892-.0547-.1985-.0435-.0385-.0084-.2287-.0407-.1908-.0351-.2722-.0441-.188-.0296-.18238-.0273h-.00562l-.0898-.0112-.43058-.0513-.00772-.0028-.1144-.0083-.188-.019-.4033-.0301-.0652-.0028-.1691-.0078-.6096-.0167-.7218.0217-.2371.0167-.5064.0408-.28338.0329-.48192.0624-.31908.0491-.45462.0815-.3458.0652-.4825.1066-.324.0764-.5093.1333-.3347.0926-.64308.1935-.193.0569-.85292.289-.3619.1361-.5255.1958-.4116.1634-.4904.2019-.444.1902-.4708.2075-.47688.2176-.46022.2181-.4986.242-.4301.2153-.5449.2778-.381.2019c-.7408.395-1.4954.8166-2.2691,1.2718l-.2532.1495-.7001.4222-.3185.1936-.705.444-.3352.2125-.7246.4708-.2834.1852-.81708.5449-.16352.1144c-36.1336,24.6047-99.94148,106.1843-163.0309,226.0033Z"/>
  <path class="uuid-8bec783f-6dd6-4456-8d79-5de669a57575" d="M404.22909,307.3815c2.5329-5.4284,5.0798-10.8072,7.6428-16.1374-8.9034,1.3565-17.7388,2.8218-26.5006,4.4015l-.1718.0296c-2.1191.3815-4.2353.7708-6.346,1.1658l-.2504.0463c-1.9963.3759-3.9871.7574-5.9784,1.144l-.6075.1143c-1.8792.3676-3.7528.7408-5.627,1.1167l-.9041.1796c-2.1598.4362-4.314.8797-6.4654,1.3292-2.5686,5.5071-5.1289,11.0661-7.6752,16.6903,2.1486-.4742,4.3034-.9399,6.46312-1.4001l.05188-.0106c2.1486-.4579,4.3028-.907,6.4626-1.351l.082-.0161c4.3279-.8908,8.6747-1.7515,13.0433-2.5848l.1361-.0246c4.36312-.8333,8.7456-1.6371,13.1466-2.413l.1389-.0217c4.4177-.7793,8.8543-1.5284,13.3105-2.2502l.0486-.0078Z"/>
  <path class="uuid-71adbecc-8677-4292-9f05-fc293500c39b" d="M574.00429,494.0015c5.8558,0,10.6026-4.7474,10.6026-10.6031s-4.7468-10.603-10.6026-10.603c-5.8563,0-10.6031,4.7473-10.6031,10.603s4.7468,10.6031,10.6031,10.6031Z"/>
  <path class="uuid-71adbecc-8677-4292-9f05-fc293500c39b" d="M574.00429,850.1646c-5.8563,0-10.6031,4.7473-10.6031,10.603s4.7468,10.6031,10.6031,10.6031c5.8558,0,10.6026-4.7474,10.6026-10.6031s-4.7468-10.603-10.6026-10.603Z"/>
  <circle class="uuid-71adbecc-8677-4292-9f05-fc293500c39b" cx="762.68861" cy="672.0833" r="10.603"/>
  <path class="uuid-71adbecc-8677-4292-9f05-fc293500c39b" d="M385.31949,661.4803c-5.8558,0-10.6031,4.7473-10.6031,10.603s4.7473,10.603,10.6031,10.603,10.6029-4.7473,10.6029-10.603-4.7473-10.603-10.6029-10.603Z"/>
  <path class="uuid-71adbecc-8677-4292-9f05-fc293500c39b" d="M714.92221,546.161c4.14-4.1427,4.14-10.8535,0-14.9962-4.1399-4.1399-10.8534-4.1399-14.9934,0-4.1421,4.1427-4.1421,10.8535,0,14.9962,4.14,4.1399,10.8535,4.1399,14.9934,0Z"/>
  <path class="uuid-71adbecc-8677-4292-9f05-fc293500c39b" d="M433.08869,798.0056c-4.1428,4.1422-4.1428,10.8535,0,14.9956,4.1398,4.14,10.8534,4.14,14.9934,0,4.1392-4.1421,4.1392-10.8534,0-14.9956-4.14-4.1399-10.8536-4.1399-14.9934,0Z"/>
  <path class="uuid-71adbecc-8677-4292-9f05-fc293500c39b" d="M699.92881,798.0056c-4.1421,4.1422-4.1421,10.8535,0,14.9956,4.14,4.14,10.8535,4.14,14.9934,0,4.14-4.1421,4.14-10.8534,0-14.9956-4.1399-4.1399-10.8534-4.1399-14.9934,0Z"/>
  <path class="uuid-71adbecc-8677-4292-9f05-fc293500c39b" d="M448.08209,546.161c4.1392-4.1427,4.1392-10.8535,0-14.9962-4.14-4.1399-10.8536-4.1399-14.9934,0-4.1428,4.1427-4.1428,10.8535,0,14.9962,4.1398,4.1399,10.8534,4.1399,14.9934,0Z"/>
  <path class="uuid-e24bbb39-4fb5-43e6-96e2-7bf2a5a56d30" d="M645.09241,772.8097c-94.88962,0-171.81492-76.9221-171.81492-171.8151,0-29.1474,7.2829-56.5879,20.0893-80.637-41.06618,21.8732-72.2161,59.9162-84.92418,105.6399l-.06532.2343c-.3542,1.2852-.6944,2.5764-1.0213,3.8728l-.1087.4412-.2918,1.1903-.10588.4412c-.15562.6588-.30792,1.3208-.458,1.9824l-.16342.7301-.212.9751-.1907.8963-.2644,1.2907-.2287,1.1519-.169.8908-.1797.9778-.1522.8389c-.10088.5611-.1964,1.1223-.2918,1.6834l-.10308.6342-.19922,1.264-.1032.6615c-.0903.5941-.1773,1.1903-.26158,1.7844l-.063.468-.20142,1.4982-.068.531c-.0792.6236-.1551,1.25-.2259,1.8764l-.014.1339c-.0708.618-.1389,1.2361-.2013,1.8574l-.0463.4491c-.0575.5912-.1144,1.1825-.169,1.7732l-.019.2069c-.0569.6593-.1116,1.3209-.1634,1.983l-.0274.3759c-.0435.5773-.0842,1.1574-.1199,1.7347l-.0217.3213c-.0435.6699-.0815,1.3404-.1144,2.0103l-.01328.2694c-.03022.5913-.05472,1.182-.07932,1.776l-.0162.3894c-.02448.6754-.0463,1.3509-.0624,2.0292l-.0028.1199c-.0162.6264-.02728,1.2556-.0357,1.8842l-.0078.444c-.0056.6705-.0112,1.3404-.0112,2.0131,0,14.6771,1.8413,28.9242,5.3057,42.5259l.2449.9561c.4384,1.675.8992,3.3417,1.3867,4.9978l.3592,1.2065c.8824,2.925,1.8412,5.82,2.8737,8.6798.3241.8936.651,1.7894.9884,2.6774,1.8686,4.9135,3.9575,9.715,6.2506,14.3999.3051.6208.613,1.2388.92322,1.8546.30508.6047.613,1.2065.92368,1.8084.6615,1.2718,1.3398,2.5385,2.0342,3.7941.29412.5338.5913,1.0676.8936,1.5986.3893.6917.787,1.3811,1.18752,2.0672l.86288,1.4597c.4307.7218.86912,1.438,1.3075,2.152.989,1.5986,1.9991,3.1755,3.0344,4.739.5171.7758,1.0375,1.5467,1.5657,2.3148,4.42052,6.428,9.2632,12.5397,14.49252,18.2916,1.38608,1.5278,2.79958,3.0288,4.24028,4.5019.9533.9778,1.9205,1.9451,2.8983,2.8983,1.9718,1.9255,3.9899,3.8047,6.0515,5.6348.5148.458,1.0297.9098,1.5495,1.3594,1.0409.9013,2.0895,1.7893,3.1515,2.6634.5283.4384,1.0621.8718,1.5987,1.3047,1.0704.8606,2.1519,1.7129,3.2441,2.5491.5472.4194,1.0944.8333,1.6477,1.2478,1.0999.8221,2.2139,1.6337,3.3361,2.4347.5612.3977,1.1251.7954,1.6912,1.1875,1.1336.7843,2.277,1.558,3.4293,2.3149,1.1519.7575,2.3149,1.5038,3.4862,2.2334,1.1708.7329,2.3507,1.4491,3.5403,2.1542,1.1904.7028,2.3918,1.3922,3.59832,2.0671,1.814,1.0135,3.64688,1.9969,5.49868,2.9446,1.2339.632,2.47832,1.25,3.7289,1.8547,3.7557,1.8083,7.5877,3.4861,11.49042,5.0251,1.95008.7681,3.91958,1.5032,5.902,2.2033,1.98578.6972,3.98768,1.3615,6.00578,1.9879,1.3453.4195,2.6963.8228,4.0551,1.2071.6783.193,1.36212.381,2.0426.5661,1.2289.3325,2.4649.651,3.7043.9561.8278.2041,1.6561.4033,2.4866.5963.6945.1606,1.3889.3162,2.0834.4657,1.39222.3051,2.7889.5913,4.1946.8607,10.5322,2.0159,21.40462,3.0723,32.5253,3.0723.6532,0,1.3069-.0056,1.9606-.0106l.5528-.0084c.5723-.0083,1.1412-.0189,1.7107-.0329l.275-.005c.651-.0167,1.2991-.0385,1.9473-.063l.5064-.019c.5366-.0217,1.0732-.0463,1.6126-.0708l.4005-.019c.6426-.0329,1.2852-.0708,1.9283-.1115l.4518-.0302c.526-.0329,1.0514-.0708,1.577-.1087l.4902-.0385c.6347-.0491,1.2695-.0976,1.9015-.1551l.362-.0329c.531-.0485,1.0592-.1004,1.5908-.1523l.5662-.0574c.5505-.0569,1.1005-.1144,1.6505-.1768l.4629-.0547c.5507-.0625,1.0978-.1277,1.6477-.1986l.6482-.082,1.3292-.1768.6074-.0842c.5723-.0792,1.1413-.1635,1.713-.2505l.7246-.1121,1.1988-.1902.7077-.1171c.5394-.0876,1.076-.1802,1.6127-.2756l.9637-.1768.8228-.1523.9995-.188.8278-.1662c.564-.1115,1.1279-.2259,1.6918-.343l.7218-.1528,1.081-.2371.5366-.1199c.7764-.1741,1.5523-.3537,2.32592-.5389l.19358-.0463,1.2963-.3162.2807-.0709c1.3531-.3374,2.7012-.6944,4.04443-1.0648l.08977-.0273c45.75613-12.6942,83.82933-43.8524,105.71303-84.9459-24.0491,12.8091-51.4863,20.0922-80.637,20.0922Z"/>
  <polygon class="uuid-8bec783f-6dd6-4456-8d79-5de669a57575" points="644.19611 1027.7154 503.81189 1027.7154 484.57489 1375.83352 509.65929 1538.52652 523.03239 1625.25682 536.47561 1712.44941 548.03749 1787.42711 599.97048 1787.42711 611.53238 1712.44941 624.97568 1625.25682 637.82331 1541.93682 663.43311 1375.83352 644.19611 1027.7154"/>
  <polygon class="uuid-fba7513b-4386-41d8-b8c7-5638e910ac14" points="558.37329 1782.85711 589.63469 1782.85711 627.83051 1377.54092 640.73171 1034.7341 507.27639 1034.7341 520.17809 1377.54092 558.37329 1782.85711"/>
</svg>